<svg id="Capa_1" enable-background="new 0 0 510 510" height="512" viewBox="0 0 510 510" width="512" xmlns="http://www.w3.org/2000/svg"><g><path d="m414.073 125.901c-38.941-38.941-89.646-61.837-144.099-65.397v-30.504h30v-30h-90v30h30v30.504c-116.087 7.591-210 103.995-210 224.496 0 124.35 100.633 225 225 225 60.1 0 116.602-23.404 159.099-65.901 87.93-87.93 87.943-230.256 0-318.198zm-144.098 353.528v-44.429h-30v44.429c-95.591-7.306-172.123-83.838-179.429-179.429h44.429v-30h-44.429c7.306-95.591 83.838-172.123 179.429-179.429v44.429h30v-44.429c95.59 7.306 172.123 83.838 179.428 179.429h-44.429v30h44.429c-7.305 95.591-83.838 172.123-179.428 179.429z"/><path d="m269.975 242.58v-62.58h-30v62.58c-19.735 7-32.575 27.016-29.558 48.661l-68.16 40.896 15.436 25.725 66.617-39.97c8.043 7.503 18.823 12.107 30.665 12.107 24.813 0 45-20.186 45-45 0-19.554-12.541-36.226-30-42.419zm-15 57.42c-8.272 0-15-6.728-15-15s6.728-15 15-15c8.271 0 15 6.728 15 15s-6.729 15-15 15z"/></g></svg>